<?xml version="1.0" encoding="UTF-8"?>
<!DOCTYPE svg PUBLIC "-//W3C//DTD SVG 1.1//EN" "http://www.w3.org/Graphics/SVG/1.1/DTD/svg11.dtd">
<!-- Creator: CorelDRAW 2021 (64-Bit) -->
<svg xmlns="http://www.w3.org/2000/svg" xml:space="preserve" width="27.8902mm" height="27.5547mm" version="1.1" style="shape-rendering:geometricPrecision; text-rendering:geometricPrecision; image-rendering:optimizeQuality; fill-rule:evenodd; clip-rule:evenodd"
viewBox="0 0 808.57 798.84"
 xmlns:xlink="http://www.w3.org/1999/xlink"
 xmlns:xodm="http://www.corel.com/coreldraw/odm/2003">
 <defs>
  <style type="text/css">
   <![CDATA[
    .str0 {stroke:#245280;stroke-width:2.21;stroke-linecap:round;stroke-linejoin:round;stroke-miterlimit:22.9256}
    .fil0 {fill:white}
    .fil16 {fill:#FEFEFE;fill-rule:nonzero}
    .fil12 {fill:#F05F70;fill-rule:nonzero}
    .fil15 {fill:#697584;fill-rule:nonzero}
    .fil2 {fill:#3B495C;fill-rule:nonzero}
    .fil1 {fill:#003333;fill-rule:nonzero}
    .fil3 {fill:#245280;fill-rule:nonzero}
    .fil8 {fill:#336699;fill-rule:nonzero}
    .fil13 {fill:#3D8361;fill-rule:nonzero}
    .fil14 {fill:#4A9E76;fill-rule:nonzero}
    .fil17 {fill:#5A88B5;fill-rule:nonzero}
    .fil5 {fill:#E3AC9A;fill-rule:nonzero}
    .fil6 {fill:#E3AC9A;fill-rule:nonzero}
    .fil4 {fill:#ECBFB0;fill-rule:nonzero}
    .fil7 {fill:#ECBFB0;fill-rule:nonzero}
    .fil11 {fill:#FFCC00;fill-rule:nonzero}
    .fil9 {fill:#FF99CC;fill-rule:nonzero;fill-opacity:0.301961}
    .fil10 {fill:#FF99CC;fill-rule:nonzero;fill-opacity:0.301961}
   ]]>
  </style>
 </defs>
 <g id="Layer_x0020_1">
  <metadata id="CorelCorpID_0Corel-Layer"/>
  <path class="fil0" d="M356.09 56.9c0,-31.4 -35.38,-56.9 -78.94,-56.9l-198.21 0c-43.57,0 -78.94,25.5 -78.94,56.9l0 60.07c0,31.41 35.37,56.9 78.94,56.9l66.48 0 47.04 50.13c0,0 11.97,12.86 23.93,11.53 13.81,-1.55 11.63,-18.4 11.63,-18.4l3.02 -43.26 46.12 0c43.56,0 78.94,-25.49 78.94,-56.9l0 -60.07z"/>
  <path class="fil1" d="M55.46 68.23l1.15 16.68 -6.91 0 1.15 -16.68 4.61 0zm-2.3 -9.32c1.06,0 1.93,0.33 2.58,1 0.66,0.67 0.99,1.47 0.99,2.41 0,0.92 -0.33,1.7 -0.99,2.34 -0.66,0.64 -1.52,0.97 -2.58,0.97 -1.04,0 -1.9,-0.32 -2.56,-0.97 -0.67,-0.65 -1,-1.43 -1,-2.34 0,-0.94 0.33,-1.75 1,-2.41 0.67,-0.67 1.52,-1 2.56,-1z"/>
  <path id="_1" class="fil1" d="M70.13 79.64c-2.08,0 -4.07,-0.28 -5.98,-0.84 -1.9,-0.56 -3.44,-1.28 -4.6,-2.17l2.04 -4.53c1.12,0.79 2.44,1.44 3.96,1.95 1.52,0.51 3.06,0.76 4.62,0.76 1.19,0 2.15,-0.12 2.88,-0.35 0.73,-0.23 1.27,-0.56 1.61,-0.98 0.35,-0.42 0.52,-0.9 0.52,-1.45 0,-0.69 -0.27,-1.24 -0.82,-1.65 -0.55,-0.41 -1.26,-0.74 -2.15,-1 -0.89,-0.26 -1.88,-0.51 -2.95,-0.74 -1.08,-0.23 -2.15,-0.53 -3.23,-0.87 -1.08,-0.35 -2.06,-0.79 -2.95,-1.34 -0.89,-0.55 -1.61,-1.26 -2.17,-2.15 -0.56,-0.89 -0.83,-2.03 -0.83,-3.42 0,-1.49 0.4,-2.84 1.21,-4.07 0.81,-1.23 2.02,-2.2 3.64,-2.93 1.62,-0.73 3.66,-1.1 6.11,-1.1 1.63,0 3.24,0.19 4.83,0.57 1.59,0.39 2.98,0.96 4.2,1.73l-1.86 4.57c-1.21,-0.69 -2.43,-1.21 -3.64,-1.54 -1.21,-0.33 -2.4,-0.5 -3.57,-0.5 -1.17,0 -2.12,0.14 -2.86,0.41 -0.74,0.27 -1.28,0.63 -1.6,1.06 -0.32,0.43 -0.48,0.94 -0.48,1.5 0,0.67 0.27,1.21 0.82,1.62 0.55,0.41 1.26,0.74 2.15,0.98 0.89,0.25 1.88,0.5 2.95,0.74 1.08,0.25 2.15,0.53 3.23,0.86 1.08,0.32 2.06,0.76 2.95,1.3 0.89,0.54 1.61,1.26 2.17,2.15 0.56,0.89 0.83,2.02 0.83,3.38 0,1.46 -0.41,2.8 -1.22,4.01 -0.82,1.21 -2.04,2.19 -3.66,2.93 -1.62,0.75 -3.67,1.12 -6.15,1.12z"/>
  <polygon id="_2" class="fil1" points="85.29,79.19 85.29,53.19 91.3,53.19 91.3,79.19 "/>
  <path id="_3" class="fil1" d="M110.02 79.64c-2.06,0 -3.94,-0.33 -5.66,-0.99 -1.72,-0.66 -3.22,-1.59 -4.49,-2.8 -1.28,-1.21 -2.27,-2.64 -2.97,-4.27 -0.71,-1.64 -1.06,-3.43 -1.06,-5.39 0,-1.96 0.35,-3.75 1.06,-5.39 0.7,-1.64 1.7,-3.06 2.99,-4.27 1.29,-1.21 2.8,-2.15 4.53,-2.81 1.73,-0.66 3.64,-0.98 5.72,-0.98 2.3,0 4.38,0.38 6.22,1.15 1.85,0.77 3.4,1.88 4.66,3.34l-3.86 3.57c-0.94,-0.99 -1.97,-1.73 -3.08,-2.21 -1.11,-0.48 -2.33,-0.72 -3.64,-0.72 -1.26,0 -2.41,0.2 -3.46,0.59 -1.04,0.4 -1.94,0.97 -2.69,1.71 -0.75,0.74 -1.34,1.62 -1.75,2.64 -0.41,1.01 -0.61,2.14 -0.61,3.38 0,1.21 0.2,2.33 0.61,3.34 0.41,1.01 0.99,1.9 1.75,2.66 0.76,0.75 1.65,1.33 2.68,1.73 1.03,0.39 2.16,0.59 3.4,0.59 1.19,0 2.35,-0.19 3.47,-0.58 1.13,-0.38 2.22,-1.03 3.29,-1.95l3.42 4.35c-1.41,1.07 -3.05,1.88 -4.92,2.45 -1.87,0.57 -3.73,0.86 -5.59,0.86zm5.01 -4.09l0 -9.77 5.5 0 0 10.55 -5.5 -0.78z"/>
  <path id="_4" class="fil1" d="M122.69 79.19l11.59 -26 5.94 0 11.63 26 -6.31 0 -9.51 -22.96 2.38 0 -9.55 22.96 -6.16 0zm5.79 -5.57l1.6 -4.57 13.37 0 1.63 4.57 -16.6 0z"/>
  <polygon id="_5" class="fil1" points="154.56,79.19 154.56,53.19 159.54,53.19 170.6,71.54 167.97,71.54 178.85,53.19 183.79,53.19 183.87,79.19 178.22,79.19 178.18,61.84 179.22,61.84 170.53,76.44 167.82,76.44 158.94,61.84 160.21,61.84 160.21,79.19 "/>
  <path id="_6" class="fil1" d="M202.58 79.6c-2.01,0 -3.88,-0.33 -5.63,-0.99 -1.75,-0.66 -3.26,-1.59 -4.53,-2.8 -1.28,-1.21 -2.25,-2.64 -2.93,-4.29 -0.68,-1.65 -1.03,-3.42 -1.06,-5.33 0,-1.93 0.35,-3.71 1.06,-5.33 0.7,-1.62 1.7,-3.04 2.97,-4.27 1.27,-1.23 2.78,-2.17 4.51,-2.84 1.73,-0.67 3.6,-0.99 5.61,-0.97 2.08,-0.03 3.98,0.3 5.7,0.97 1.72,0.67 3.22,1.61 4.5,2.82 1.28,1.21 2.26,2.63 2.97,4.25 0.7,1.62 1.05,3.41 1.02,5.37 0.03,1.93 -0.32,3.72 -1.02,5.37 -0.71,1.65 -1.7,3.07 -2.97,4.27 -1.28,1.2 -2.77,2.13 -4.5,2.8 -1.72,0.67 -3.62,0.99 -5.7,0.97zm0 -5.05c1.19,-0.02 2.28,-0.23 3.27,-0.63 0.99,-0.4 1.85,-0.97 2.58,-1.71 0.73,-0.74 1.3,-1.62 1.71,-2.64 0.41,-1.02 0.63,-2.14 0.65,-3.38 -0.02,-1.24 -0.24,-2.37 -0.65,-3.38 -0.41,-1.01 -0.98,-1.9 -1.71,-2.64 -0.73,-0.74 -1.59,-1.32 -2.58,-1.73 -0.99,-0.41 -2.08,-0.61 -3.27,-0.61 -1.14,0.03 -2.2,0.23 -3.19,0.63 -0.99,0.4 -1.85,0.97 -2.58,1.71 -0.73,0.74 -1.3,1.62 -1.71,2.62 -0.41,1 -0.62,2.13 -0.65,3.4 0.03,1.21 0.24,2.33 0.65,3.36 0.41,1.03 0.98,1.91 1.71,2.66 0.73,0.75 1.58,1.32 2.56,1.73 0.98,0.41 2.05,0.61 3.21,0.61z"/>
  <path id="_7" class="fil1" d="M229.92 79.64c-2.08,0 -4.07,-0.28 -5.98,-0.84 -1.9,-0.56 -3.44,-1.28 -4.6,-2.17l2.04 -4.53c1.12,0.79 2.44,1.44 3.96,1.95 1.52,0.51 3.06,0.76 4.62,0.76 1.19,0 2.15,-0.12 2.88,-0.35 0.73,-0.23 1.27,-0.56 1.61,-0.98 0.35,-0.42 0.52,-0.9 0.52,-1.45 0,-0.69 -0.27,-1.24 -0.82,-1.65 -0.55,-0.41 -1.26,-0.74 -2.15,-1 -0.89,-0.26 -1.88,-0.51 -2.95,-0.74 -1.08,-0.23 -2.15,-0.53 -3.23,-0.87 -1.08,-0.35 -2.06,-0.79 -2.95,-1.34 -0.89,-0.55 -1.61,-1.26 -2.17,-2.15 -0.56,-0.89 -0.83,-2.03 -0.83,-3.42 0,-1.49 0.4,-2.84 1.21,-4.07 0.81,-1.23 2.02,-2.2 3.64,-2.93 1.62,-0.73 3.66,-1.1 6.11,-1.1 1.63,0 3.24,0.19 4.83,0.57 1.59,0.39 2.98,0.96 4.2,1.73l-1.86 4.57c-1.21,-0.69 -2.43,-1.21 -3.64,-1.54 -1.21,-0.33 -2.4,-0.5 -3.57,-0.5 -1.17,0 -2.12,0.14 -2.86,0.41 -0.74,0.27 -1.28,0.63 -1.6,1.06 -0.32,0.43 -0.48,0.94 -0.48,1.5 0,0.67 0.27,1.21 0.82,1.62 0.55,0.41 1.26,0.74 2.15,0.98 0.89,0.25 1.88,0.5 2.95,0.74 1.08,0.25 2.15,0.53 3.23,0.86 1.08,0.32 2.06,0.76 2.95,1.3 0.89,0.54 1.61,1.26 2.17,2.15 0.56,0.89 0.83,2.02 0.83,3.38 0,1.46 -0.41,2.8 -1.22,4.01 -0.82,1.21 -2.04,2.19 -3.66,2.93 -1.62,0.75 -3.67,1.12 -6.15,1.12z"/>
  <path id="_8" class="fil1" d="M261.09 63.7l12.55 -0.03 0 4.64 -12.52 0.04 -0.03 -4.64zm0.41 10.66l14.23 0 -0.04 4.83 -20.1 0 0.04 -26 19.61 0 -0.08 4.83 -13.59 0 -0.07 16.34z"/>
  <polygon id="_9" class="fil1" points="280.51,79.19 280.51,53.19 285.49,53.19 300.83,71.91 298.45,71.95 298.42,53.19 304.36,53.19 304.36,79.19 299.42,79.19 284.04,60.47 286.45,60.43 286.45,79.19 "/>
  <path id="_10" class="fil1" d="M78.43 120.61c-2,0 -3.87,-0.33 -5.59,-0.99 -1.72,-0.66 -3.21,-1.59 -4.48,-2.8 -1.26,-1.21 -2.25,-2.64 -2.95,-4.27 -0.71,-1.64 -1.06,-3.43 -1.06,-5.39 0,-1.96 0.35,-3.75 1.06,-5.39 0.7,-1.64 1.7,-3.06 2.97,-4.27 1.28,-1.21 2.77,-2.15 4.48,-2.81 1.71,-0.66 3.58,-0.98 5.61,-0.98 2.25,0 4.29,0.39 6.11,1.17 1.82,0.78 3.35,1.93 4.59,3.44l-3.86 3.56c-0.89,-1.01 -1.88,-1.77 -2.97,-2.28 -1.09,-0.51 -2.28,-0.76 -3.57,-0.76 -1.21,0 -2.33,0.2 -3.34,0.59 -1.02,0.4 -1.9,0.97 -2.64,1.71 -0.74,0.74 -1.32,1.62 -1.73,2.64 -0.41,1.01 -0.61,2.14 -0.61,3.38 0,1.24 0.2,2.36 0.61,3.38 0.41,1.01 0.99,1.89 1.73,2.64 0.74,0.75 1.62,1.31 2.64,1.71 1.01,0.39 2.13,0.59 3.34,0.59 1.29,0 2.48,-0.26 3.57,-0.76 1.09,-0.51 2.08,-1.28 2.97,-2.32l3.86 3.57c-1.24,1.51 -2.77,2.66 -4.59,3.46 -1.82,0.79 -3.87,1.19 -6.15,1.19z"/>
  <path id="_11" class="fil1" d="M105.21 120.57c-2.01,0 -3.88,-0.33 -5.63,-0.99 -1.75,-0.66 -3.26,-1.59 -4.53,-2.8 -1.28,-1.21 -2.25,-2.64 -2.93,-4.29 -0.68,-1.65 -1.03,-3.42 -1.06,-5.33 0,-1.93 0.35,-3.71 1.06,-5.33 0.7,-1.62 1.7,-3.04 2.97,-4.27 1.27,-1.23 2.78,-2.17 4.51,-2.84 1.73,-0.67 3.6,-0.99 5.61,-0.97 2.08,-0.03 3.98,0.3 5.7,0.97 1.72,0.67 3.22,1.61 4.5,2.82 1.28,1.21 2.26,2.63 2.97,4.25 0.7,1.62 1.05,3.41 1.02,5.37 0.03,1.93 -0.32,3.72 -1.02,5.37 -0.71,1.65 -1.7,3.07 -2.97,4.27 -1.28,1.2 -2.77,2.13 -4.5,2.8 -1.72,0.67 -3.62,0.99 -5.7,0.97zm0 -5.05c1.19,-0.02 2.28,-0.23 3.27,-0.63 0.99,-0.4 1.85,-0.97 2.58,-1.71 0.73,-0.74 1.3,-1.62 1.71,-2.64 0.41,-1.02 0.63,-2.14 0.65,-3.38 -0.02,-1.24 -0.24,-2.37 -0.65,-3.38 -0.41,-1.01 -0.98,-1.9 -1.71,-2.64 -0.73,-0.74 -1.59,-1.32 -2.58,-1.73 -0.99,-0.41 -2.08,-0.61 -3.27,-0.61 -1.14,0.03 -2.2,0.23 -3.19,0.63 -0.99,0.4 -1.85,0.97 -2.58,1.71 -0.73,0.74 -1.3,1.62 -1.71,2.62 -0.41,1 -0.62,2.13 -0.65,3.4 0.03,1.21 0.24,2.33 0.65,3.36 0.41,1.03 0.98,1.91 1.71,2.66 0.73,0.75 1.58,1.32 2.56,1.73 0.98,0.41 2.05,0.61 3.21,0.61z"/>
  <polygon id="_12" class="fil1" points="124,120.17 124,94.17 128.98,94.17 144.32,112.89 141.95,112.92 141.91,94.17 147.85,94.17 147.85,120.17 142.91,120.17 127.54,101.45 129.95,101.41 129.95,120.17 "/>
  <polygon id="_13" class="fil1" points="159.44,120.17 159.4,99.07 151.08,99.07 151.08,94.17 173.7,94.17 173.74,99.07 165.38,99.07 165.42,120.17 "/>
  <path id="_14" class="fil1" d="M172.25 120.17l11.59 -26 5.94 0 11.63 26 -6.31 0 -9.51 -22.96 2.38 0 -9.55 22.96 -6.16 0zm5.79 -5.57l1.6 -4.57 13.37 0 1.63 4.57 -16.6 0z"/>
  <path id="_15" class="fil1" d="M216.19 120.61c-2,0 -3.87,-0.33 -5.59,-0.99 -1.72,-0.66 -3.21,-1.59 -4.48,-2.8 -1.26,-1.21 -2.25,-2.64 -2.95,-4.27 -0.71,-1.64 -1.06,-3.43 -1.06,-5.39 0,-1.96 0.35,-3.75 1.06,-5.39 0.7,-1.64 1.7,-3.06 2.97,-4.27 1.28,-1.21 2.77,-2.15 4.48,-2.81 1.71,-0.66 3.58,-0.98 5.61,-0.98 2.25,0 4.29,0.39 6.11,1.17 1.82,0.78 3.35,1.93 4.59,3.44l-3.86 3.56c-0.89,-1.01 -1.88,-1.77 -2.97,-2.28 -1.09,-0.51 -2.28,-0.76 -3.57,-0.76 -1.21,0 -2.33,0.2 -3.34,0.59 -1.02,0.4 -1.9,0.97 -2.64,1.71 -0.74,0.74 -1.32,1.62 -1.73,2.64 -0.41,1.01 -0.61,2.14 -0.61,3.38 0,1.24 0.2,2.36 0.61,3.38 0.41,1.01 0.99,1.89 1.73,2.64 0.74,0.75 1.62,1.31 2.64,1.71 1.01,0.39 2.13,0.59 3.34,0.59 1.29,0 2.48,-0.26 3.57,-0.76 1.09,-0.51 2.08,-1.28 2.97,-2.32l3.86 3.57c-1.24,1.51 -2.77,2.66 -4.59,3.46 -1.82,0.79 -3.87,1.19 -6.15,1.19z"/>
  <polygon id="_16" class="fil1" points="236.14,120.17 236.1,99.07 227.78,99.07 227.78,94.17 250.41,94.17 250.44,99.07 242.09,99.07 242.12,120.17 "/>
  <path id="_17" class="fil1" d="M265.86 120.57c-2.01,0 -3.88,-0.33 -5.63,-0.99 -1.75,-0.66 -3.26,-1.59 -4.53,-2.8 -1.28,-1.21 -2.25,-2.64 -2.93,-4.29 -0.68,-1.65 -1.03,-3.42 -1.06,-5.33 0,-1.93 0.35,-3.71 1.06,-5.33 0.7,-1.62 1.7,-3.04 2.97,-4.27 1.27,-1.23 2.78,-2.17 4.51,-2.84 1.73,-0.67 3.6,-0.99 5.61,-0.97 2.08,-0.03 3.98,0.3 5.7,0.97 1.72,0.67 3.22,1.61 4.5,2.82 1.28,1.21 2.26,2.63 2.97,4.25 0.7,1.62 1.05,3.41 1.02,5.37 0.03,1.93 -0.32,3.72 -1.02,5.37 -0.71,1.65 -1.7,3.07 -2.97,4.27 -1.28,1.2 -2.77,2.13 -4.5,2.8 -1.72,0.67 -3.62,0.99 -5.7,0.97zm0 -5.05c1.19,-0.02 2.28,-0.23 3.27,-0.63 0.99,-0.4 1.85,-0.97 2.58,-1.71 0.73,-0.74 1.3,-1.62 1.71,-2.64 0.41,-1.02 0.63,-2.14 0.65,-3.38 -0.02,-1.24 -0.24,-2.37 -0.65,-3.38 -0.41,-1.01 -0.98,-1.9 -1.71,-2.64 -0.73,-0.74 -1.59,-1.32 -2.58,-1.73 -0.99,-0.41 -2.08,-0.61 -3.27,-0.61 -1.14,0.03 -2.2,0.23 -3.19,0.63 -0.99,0.4 -1.85,0.97 -2.58,1.71 -0.73,0.74 -1.3,1.62 -1.71,2.62 -0.41,1 -0.62,2.13 -0.65,3.4 0.03,1.21 0.24,2.33 0.65,3.36 0.41,1.03 0.98,1.91 1.71,2.66 0.73,0.75 1.58,1.32 2.56,1.73 0.98,0.41 2.05,0.61 3.21,0.61z"/>
  <path id="_18" class="fil1" d="M284.65 111.14l-1.15 -16.97 6.91 0 -1.15 16.97 -4.61 0zm2.3 9.32c-1.04,0 -1.9,-0.33 -2.56,-1 -0.67,-0.67 -1,-1.46 -1,-2.38 0,-0.94 0.33,-1.73 1,-2.36 0.67,-0.63 1.52,-0.95 2.56,-0.95 1.06,0 1.93,0.32 2.58,0.95 0.66,0.63 0.99,1.42 0.99,2.36 0,0.92 -0.33,1.71 -0.99,2.38 -0.66,0.67 -1.52,1 -2.58,1z"/>
  <path class="fil2" d="M541.64 107.17c-2.46,-0.38 -4.92,-0.65 -7.43,-0.66 -6.11,-0.01 -12.26,1.3 -17.69,4.16 -4.89,2.58 -9.22,6.29 -12.21,10.98 -3.37,5.28 -4.75,11.48 -4.8,17.69 -0.04,5.79 1.01,11.39 2.53,16.89 -0.88,-11.15 0.48,-22.44 6.45,-31.71 7.24,-11.24 20.22,-18.27 33.15,-17.36zm7.71 1.49l-0.16 -0.03 0.15 0.04 0.01 -0.01zm25.55 -24.55c16.61,-5.58 34.97,-4.66 51.34,1.48 -4.29,-2.23 -8.88,-3.92 -13.72,-5 -11.41,-2.54 -23.88,-2.24 -35.09,1.12 -6.29,1.88 -12.31,4.98 -17.02,9.6 -1.88,1.84 -3.57,3.89 -5,6.11 4.95,-6.15 11.89,-10.77 19.49,-13.32zm197.53 177.55c1.56,-7.87 -0.39,-15.92 -4.98,-22.33 6.18,10.88 5.29,25.43 -2.3,35.4 0.57,0.01 1.14,0.03 1.7,0.07 2.68,-3.97 4.65,-8.43 5.58,-13.14zm-305.42 48.38c-11.29,-10.23 -12.03,-29.45 -2.82,-41.25 -0.26,0.16 -0.53,0.31 -0.78,0.48 -7.66,5.1 -12.03,14.31 -11.25,23.46 0.46,5.39 2.2,10.67 5.32,15.11 0.25,0.36 -0.3,0.76 -0.6,0.46 -7.18,-7.24 -9.31,-17.88 -5.71,-27.4 1.67,-4.42 4.4,-8.45 7.97,-11.55 3.32,-2.88 7.24,-4.74 11.29,-6.33 8.57,-5.81 19.59,-7.64 27.84,-13.99 8.18,-6.29 12.43,-16.18 13.83,-26.57 -0.64,2.89 -1.49,5.73 -2.61,8.43 -2.27,5.47 -5.52,11.38 -10.15,15.2 -0.43,0.35 -1.16,-0.1 -0.83,-0.64 1.54,-2.46 3.26,-4.8 4.64,-7.36 1.31,-2.43 2.41,-4.99 3.33,-7.6 0.1,-0.29 0.18,-0.59 0.28,-0.89 -3.31,5.05 -7.54,9.5 -12.45,13.06 -4.81,3.49 -10.24,5.78 -16.15,6.6 -0.72,0.1 -0.98,-0.81 -0.3,-1.09 8.96,-3.71 17.52,-9.09 23.67,-16.69 4.09,-5.06 6.9,-10.92 8.48,-17.13 0.01,-0.17 0.05,-0.34 0.06,-0.52 1.01,-11.53 -0.62,-23.2 -3.95,-34.25 -4.04,-13.37 -10.19,-26.46 -9.9,-40.73 0.13,-6.32 1.56,-12.69 4.84,-18.14 2.93,-4.85 7.16,-8.87 12,-11.78 5.94,-3.56 12.76,-5.37 19.66,-5.48 3.73,-0.06 7.61,0.28 11.23,1.21 1.76,0.45 3.5,1.05 5.16,1.77 -0.29,-1.07 -0.52,-2.15 -0.67,-3.25 -0.18,-1.35 -0.29,-2.71 -0.31,-4.07 -0.02,-1.4 0.24,-2.69 0.54,-4.05 0.04,-0.21 0.35,-0.15 0.36,0.05 0.05,1.33 0.22,2.66 0.28,4 0.06,1.37 0.21,2.74 0.45,4.09 0.16,0.91 0.37,1.81 0.58,2.71 0.12,-0.28 0.24,-0.56 0.36,-0.83 0.21,-2.01 0.59,-3.91 1.41,-5.88 1.06,-2.54 2.45,-4.99 4.17,-7.14 3.66,-4.57 8.43,-8.11 13.72,-10.57 11.1,-5.17 24.3,-6.53 36.39,-5.09 11.73,1.39 23.08,5.7 32.04,13.53 1.42,1.23 2.73,2.56 4.01,3.92 7.93,5.26 14.9,11.93 20.27,19.84 5.89,8.66 9.94,18.43 15.36,27.39 0.37,0.61 0.76,1.23 1.15,1.84 6.29,6.1 13.81,10.83 21.8,14.38 9.21,4.1 19.44,5.72 28.31,10.58 7.6,4.17 14.1,10.61 17.97,18.39 4.86,9.76 5.29,21.09 0.46,30.93 -0.34,0.7 -1.52,0.21 -1.27,-0.54 3.1,-9.1 2.46,-19.76 -1.68,-28.43 -3.73,-7.82 -10.12,-14.16 -17.74,-18.2 -4.48,-2.37 -9.36,-3.83 -14.17,-5.35 -4.67,-1.47 -9.27,-3.12 -13.73,-5.16 -4.46,-2.04 -8.77,-4.46 -12.81,-7.27 4.01,4.31 8.69,7.87 14.16,9.96 5.91,2.26 12.38,2.64 18.37,4.68 10.98,3.73 19.81,13.25 22.69,24.49 2.88,11.24 -0.28,23.84 -8.12,32.39 8.26,-1.61 17.03,0.41 24.03,5.05 0.31,0.1 0.63,0.18 0.94,0.31 2.3,0.91 4.38,2.12 6.34,3.64 3.95,3.07 7,7.16 8.98,11.75 4.31,10 2.62,21.39 -3.02,30.52l-0.16 0.25c7.82,1.44 15.12,5.58 21.15,10.85 11.4,9.97 19.03,25.49 16.26,40.26 -0.5,8.36 -3.75,16.92 -10.34,22.32 -3.85,3.15 -9.55,6.17 -14.69,5.8 -0.95,-0.07 -1.4,-1.33 -0.5,-1.86 1.74,-1.02 3.78,-1.62 5.65,-2.36 1.96,-0.78 3.87,-1.69 5.64,-2.85 2.11,-1.39 3.88,-3.18 5.39,-5.19 -7.68,7.14 -18.86,10.41 -28.21,5.83 1.16,12.92 -6.52,25.52 -17.15,32.95 -10.63,7.44 -23.79,10.4 -36.71,11.49 -19.89,1.67 -40.52,-0.89 -58.16,-10.22 -17.64,-9.33 -31.91,-26.01 -35.61,-45.61l-8.72 11.06c-32.04,25.64 -76.22,31.6 -116.86,25.96 -13.63,-1.89 -28.09,-5.55 -37.03,-16 -11.74,-13.74 -8.6,-37.46 6.33,-47.66z"/>
  <path class="fil3" d="M730.44 272.94c0.79,-0.88 1.61,-1.79 2.37,-2.71 2.84,-3.45 4.15,-7.37 3.9,-11.65 -0.49,-8.33 -7.75,-15.08 -16.54,-15.35l-0.45 -0.03 -0.02 -0.43 0 -0.46 0.42 -0.06 0.01 0c7.03,-0.89 13.83,2.51 17.35,8.67 3.69,6.47 3.03,14.63 -1.68,20.78 -0.96,1.26 -2.04,2.44 -3.09,3.58 -1.24,1.35 -2.51,2.74 -3.58,4.26 0.26,0.06 0.53,0.12 0.79,0.17 2.03,0.45 4.13,0.91 6.19,1.54 3.21,0.99 6.02,2.07 8.6,3.3 5.58,2.66 10.12,6.21 13.48,10.55 3.58,4.62 5.54,9.8 5.67,14.96 0.12,5.03 -1.6,10.34 -4.71,14.57 -3.51,4.77 -8.26,8.11 -14.13,9.94l-0.28 0.04c-0.38,0 -0.73,-0.24 -0.89,-0.63 -0.19,-0.48 -0.01,-0.98 0.44,-1.2 4,-1.98 7.85,-5.17 10.81,-8.96 2.16,-2.76 4.77,-7.17 4.98,-12.54 0.41,-10.52 -7.94,-18.69 -15.88,-22.83 -2.59,-1.35 -5.4,-2.52 -8.61,-3.57 -2.73,-0.9 -6.12,-2.01 -9.37,-2.75 -0.46,-0.1 -0.81,-0.4 -1.01,-0.83 -0.22,-0.47 -0.21,-1.03 0.03,-1.48 1.37,-2.6 3.33,-4.78 5.22,-6.89z"/>
  <path class="fil3" d="M728.02 343.52l0.15 0.43c1.65,4.62 5.46,8.13 10.18,9.37 4.42,1.17 9.57,-0.03 13.77,-3.21 0.3,-0.23 0.7,-0.19 0.96,0.1 0.28,0.3 0.28,0.75 0.01,1.04 -2.74,2.93 -6.68,4.53 -10.77,4.53 -1.55,0 -3.12,-0.23 -4.65,-0.7 -4.94,-1.52 -8.98,-5.66 -10.54,-10.8l-0.08 -0.52 0.43 -0.14 0.53 -0.09z"/>
  <path class="fil3" d="M745.71 280.71c-0.54,-0.16 -0.83,-0.69 -0.67,-1.24 0.16,-0.54 0.68,-0.84 1.21,-0.69 7.58,2.11 13.63,5.89 17.98,11.22 5.34,6.54 8,14.21 7.32,21.04 -0.04,0.4 -0.38,0.72 -0.8,0.75l-0.04 0c-0.36,0 -0.65,-0.24 -0.72,-0.61 -1.26,-6.29 -3.2,-13.51 -8.01,-19.35 -4.44,-5.4 -10.22,-9.34 -16.26,-11.11z"/>
  <path class="fil3" d="M712.6 229.9c-0.69,0.6 -1.38,1.2 -2.02,1.82 -2.11,2.03 -5.16,6.01 -1.88,9.91 1.39,1.65 3.18,2.89 5.05,4.12 1.75,1.15 4.11,2.5 6.82,2.78 0.41,0.04 0.7,0.39 0.67,0.8 -0.03,0.37 -0.32,0.65 -0.7,0.65l-0.03 0c-3.99,-0.18 -7.61,-2.34 -10.62,-4.44 -3.65,-2.54 -5.38,-5.4 -5.13,-8.51 0.28,-3.57 2.77,-6.51 5.42,-9.15l0.43 -0.42c2.45,-2.43 5.22,-5.19 4.4,-8.74 -0.44,-1.9 -1.76,-3.72 -3.73,-5.13 -0.75,-0.54 -1.6,-0.98 -2.43,-1.41 -1.2,-0.63 -2.45,-1.29 -3.48,-2.26 -0.46,-0.43 -0.58,-1.14 -0.31,-1.76 0.27,-0.61 0.84,-0.95 1.44,-0.93 3.91,0.24 7.93,3.29 10.01,6.02 2.45,3.22 2.99,7.12 1.45,10.45 -1.2,2.58 -3.31,4.42 -5.35,6.2z"/>
  <path class="fil3" d="M706.19 284.71c0.47,-0.21 0.93,-0.41 1.35,-0.63 1.59,-0.85 2.86,-1.64 3.99,-2.47 2.43,-1.79 4.55,-4.07 6.31,-6.78 2.07,-3.19 3.32,-6.51 3.62,-9.6 0.31,-3.19 -0.62,-7.17 -4.17,-8.77 -0.4,-0.18 -0.57,-0.63 -0.39,-1.06 0.18,-0.43 0.62,-0.62 1.03,-0.47 3.34,1.3 5.73,4.29 6.4,7.98 0.66,3.67 -0.2,7.81 -2.56,12.3 -1.71,3.25 -4.2,6.23 -7.2,8.64 -1.72,1.38 -3.21,2.36 -4.7,3.1l-0.18 0.09c-1.37,0.68 -3.21,1.59 -4.88,1.59l-0.48 -0.03c-0.57,-0.07 -1.1,-0.5 -1.27,-1.05 -0.14,-0.47 0,-0.95 0.39,-1.28 0.79,-0.68 1.78,-1.12 2.74,-1.54z"/>
  <path class="fil3" d="M659 181.36c1.68,-0.67 3.53,-1.18 5.63,-1.55 3.82,-0.68 7.81,-0.73 11.88,-0.13 4.18,0.61 8.03,1.94 11.14,3.83 1.58,0.96 3.23,2.03 4.57,3.37l0.23 0.23c1.17,1.17 2.62,2.62 2.93,4.35 0.06,0.33 -0.15,0.63 -0.48,0.7l-0.12 0.01c-0.27,0 -0.5,-0.19 -0.57,-0.46 -0.3,-1.35 -1.97,-2.17 -3.43,-2.9 -0.41,-0.2 -0.8,-0.39 -1.14,-0.59 -1.5,-0.86 -3.08,-1.53 -4.42,-2.08 -3.33,-1.36 -6.72,-2.22 -10.07,-2.56 -3.43,-0.34 -6.82,-0.19 -10.07,0.47 -1.46,0.3 -3.02,0.73 -4.89,1.36 -0.41,0.14 -0.82,0.3 -1.24,0.46 -1.22,0.46 -2.48,0.94 -3.79,1.04 -0.51,0.02 -1.02,-0.26 -1.3,-0.76 -0.27,-0.49 -0.26,-1.05 0.04,-1.46 1.17,-1.62 3.14,-2.56 5.09,-3.34z"/>
  <path class="fil3" d="M502.66 284.61c1.95,-1.54 4.03,-2.93 6.04,-4.28 1.63,-1.09 3.31,-2.21 4.9,-3.4 4.32,-3.23 7.23,-7.06 8.67,-11.4 1.53,-4.6 1.63,-9.51 0.29,-13.81 -0.18,-0.57 0.11,-1.11 0.68,-1.3 0.51,-0.17 1.17,0.01 1.4,0.68 2.46,7.19 1.59,14.91 -2.39,21.18 -3.05,4.81 -7.72,7.99 -12.23,11.06 -2.09,1.42 -4.25,2.9 -6.2,4.51 -5.16,4.24 -11.38,11.15 -11.74,19.98 -0.17,4.26 1.08,8.04 3.63,10.92 2.35,2.66 5.65,4.58 9.52,5.55 3.72,0.93 9,1.46 13,-1.33 3.63,-2.54 5.13,-7.37 3.49,-11.24 -0.15,-0.35 0,-0.75 0.34,-0.92 0.32,-0.16 0.7,-0.04 0.88,0.28 1.63,2.92 1.43,6.61 -0.53,9.88 -1.84,3.05 -4.88,5.04 -9.32,6.08 -1.23,0.29 -2.5,0.43 -3.79,0.43 -6.68,0 -13.71,-3.72 -17.18,-9.46 -4.1,-6.78 -3.47,-16.19 1.6,-23.95 2.15,-3.29 5.08,-6.38 8.95,-9.45z"/>
  <path class="fil3" d="M495.75 339.74l1.3 0c3.98,0.01 7.72,0.02 11.57,-0.89 4.44,-1.05 8.48,-2.98 11.68,-5.59 2.98,-2.42 5.35,-5.55 7.04,-9.3 1.73,-3.83 2.48,-8.21 2.01,-11.73 -0.05,-0.41 0.23,-0.79 0.67,-0.86 0.45,-0.08 0.86,0.18 0.95,0.6 0.46,2.2 0.83,4.2 0.64,6.47 -0.18,2.16 -0.68,4.33 -1.5,6.45 -1.55,4.01 -4.26,7.79 -7.66,10.64 -3.46,2.91 -7.82,5.04 -12.61,6.17 -2.27,0.54 -5.2,1.03 -8.33,1.03 -1.99,0 -4.05,-0.2 -6.06,-0.72 -0.57,-0.14 -0.91,-0.66 -0.83,-1.26 0.08,-0.6 0.55,-1.02 1.14,-1.02z"/>
  <path class="fil3" d="M491.59 286.83l0 0 -0 0zm-9 39.02c-1.32,-1.44 -2.45,-2.91 -3.4,-4.6 -1.79,-3.16 -2.96,-6.53 -3.4,-9.73 -0.96,-6.98 1.19,-14.09 5.89,-19.49 2.45,-2.82 5.51,-4.95 9.36,-6.51 0.45,-0.19 0.93,0.02 1.14,0.48 0.22,0.48 0.06,1.01 -0.38,1.25 -6.82,3.62 -11.9,10.91 -12.94,18.56 -0.51,3.76 -0,7.85 1.43,11.52 1.56,4 4.4,7.64 7.4,9.51l0.48 0.24 -0.08 0.11c0.37,0.49 0.36,1.16 0.11,1.65 -0.33,0.66 -1,0.92 -1.67,0.65l-0.16 -0.06 -0.05 0.06 -0.14 -0.12c-4.25,-1.49 -9.12,0.63 -11.46,5.04 -3.09,5.82 -0,13.08 2.11,16.89 0.3,0.54 0.16,1.15 -0.34,1.48 -0.19,0.12 -0.41,0.19 -0.65,0.19 -0.34,0 -0.69,-0.14 -0.94,-0.49 -3.68,-4.99 -6.56,-13.23 -2.54,-20.07 2.06,-3.5 6.09,-6.23 10.24,-6.55z"/>
  <path class="fil3" d="M461.97 340.82c0.89,-7.27 5.45,-13.18 8.8,-16.99 0.32,-0.37 0.84,-0.41 1.22,-0.08 0.35,0.3 0.49,0.88 0.12,1.32 -4.53,5.38 -7.21,10.68 -7.95,15.76 -0.81,5.57 0.9,11.03 4.57,14.59 0.32,0.31 0.34,0.77 0.05,1.1 -0.17,0.19 -0.4,0.29 -0.63,0.29 -0.19,0 -0.38,-0.06 -0.53,-0.19 -4.32,-3.48 -6.43,-9.39 -5.64,-15.79z"/>
  <path class="fil4" d="M610.15 248.22l20.91 48.53 23.91 11.42c0,0 -23.19,31.45 -52.73,44.05 -29.54,12.6 -48.23,-24.13 -48.23,-24.13l20.74 -20.33 -16.08 -54.38 51.47 -5.17z"/>
  <path class="fil5" d="M562.99 267.97c1.67,-0.55 3.35,-1.08 5.04,-1.58 10.82,-3.21 21.89,-5.46 33,-7.33 3.99,-1.4 8,-2.77 12.02,-4.1l7.55 17.52c-1.66,2.21 -3.46,4.4 -5.42,6.58 -2.43,2.72 -5.01,5.31 -7.73,7.75 -5.63,5.07 -11.86,9.52 -18.48,13.21 -4.62,2.58 -9.5,4.91 -14.53,6.7l-11.46 -38.76z"/>
  <path class="fil6" d="M519.09 412.38c-7.8,33.42 -9.72,66.05 -14.39,91.88 -30.47,8.15 -85.73,45.23 -85.73,45.23l20.51 40.36c0,0 68.68,-20.86 109.9,-45.41 32.03,-35.31 28.19,-92.86 22.38,-115.7l-52.68 -16.36z"/>
  <path class="fil7" d="M573.67 491.31l-18.27 64.14 73.92 34.3 99.72 -36.2c0,0 11.07,-29.98 6.92,-64.42l-162.29 2.18z"/>
  <path class="fil8" d="M566.43 516.72c0,0 -11.03,16.41 -14.52,40.63 0,0 -27.74,6.97 -39.21,21.73 0,0 -200.67,-83.59 -251.57,-47.57 -50.89,36.02 8.05,124.56 8.05,124.56 0,0 46.41,-10.1 112.86,3.15 0,0 37.77,25.91 128.58,44.59 15.43,3.17 5.15,51.64 25.26,56.3 127.91,29.6 182.09,-5.65 205.15,-53.18 27.78,-57.25 -9.99,-159.76 -9.99,-159.76 0,0 -106.63,5.86 -164.61,-30.45z"/>
  <path class="fil3" d="M608.29 545.11c0.87,-0.02 1.64,-0.01 2.47,0.24 0.86,0.25 1.61,0.61 2.34,1.14 1.45,1.04 2.66,2.51 3.41,4.13 1.71,3.69 1.21,9.03 -2.98,10.81 -3.7,1.56 -8.12,-0.27 -10.57,-3.22 -2.58,-3.11 -3.61,-7.74 -0.69,-11 1.29,-1.43 3.18,-2.24 5.08,-2.38 1.02,-0.08 2.03,0.19 2.92,0.7 1.19,0.68 1.83,1.72 1.59,3.1 -0.12,0.66 -0.84,1.08 -1.46,1.11 -0.36,0.01 -0.7,-0.01 -1.05,-0.12 -0.24,-0.08 -0.27,-0.07 -0.61,-0.23 -0.15,-0.08 -0.5,-0.15 -0.02,-0.03l-0.33 -0.1c-0.39,-0.13 -0.04,0.13 0.09,-0.01l-0.84 -0.05 -0.43 0.02c0.02,0.07 0.53,-0.12 0.08,0 -0.26,0.07 -0.52,0.13 -0.79,0.22 -0.41,0.13 0.1,-0.05 0.1,-0.05l-0.4 0.21 -0.39 0.24c-0.37,0.22 0.3,-0.29 -0.04,0.03 -0.18,0.17 -0.36,0.35 -0.53,0.53 -0.34,0.35 0.22,-0.39 -0.02,0.04l-0.23 0.39c-0.14,0.22 -0.1,0.01 0.03,-0.11l-0.15 0.47 -0.1 0.46c-0.03,0.16 -0.02,0.12 0.02,-0.1l-0.02 0.37c-0,0.19 0.01,0.37 0.01,0.56 0,0.1 0.07,0.41 -0.01,-0.01 0.06,0.34 0.14,0.68 0.25,1.01l0.16 0.45c-0.17,-0.43 0.08,0.14 0.1,0.19 0.18,0.35 0.39,0.67 0.6,1 0.33,0.52 -0.15,-0.17 0.08,0.12l0.32 0.37c0.22,0.24 0.45,0.47 0.69,0.69l0.45 0.38c-0.34,-0.27 0.17,0.1 0.2,0.12 0.32,0.21 0.65,0.38 0.98,0.56 0.52,0.28 -0.22,-0.07 0.11,0.06l0.45 0.16c0.3,0.1 0.61,0.18 0.92,0.24 0.07,0.02 0.67,0.07 0.19,0.04 0.19,0.01 0.37,0.03 0.55,0.03l0.37 -0.01c0.24,-0.02 0.24,-0.02 -0.01,0.02l0.35 -0.07 0.34 -0.09c0.5,-0.11 -0.27,0.19 0.17,-0.06l0.46 -0.27c-0.07,0.05 -0.26,0.25 0.02,-0.02l0.41 -0.43c-0.2,0.26 0.04,-0.09 0.08,-0.16l0.23 -0.43c-0.13,0.3 0.12,-0.39 0.14,-0.46 0.29,-1.07 0.24,-2.24 -0.09,-3.4l-0.14 -0.43c-0.02,-0.06 -0.24,-0.68 -0.14,-0.42 -0.14,-0.34 -0.31,-0.67 -0.5,-0.99 -0.38,-0.66 -0.66,-1.01 -1.17,-1.57 -0.95,-1.02 -2.13,-2.11 -3.39,-2.73 -0.61,-0.3 -0.28,-1.21 0.33,-1.22z"/>
  <path class="fil3" d="M597.89 541.19c0.15,3.15 -0.91,6.23 -1.84,9.22 -0.48,1.53 -0.98,3.05 -1.45,4.59 -0.42,1.38 -0.88,2.89 -0.68,4.35 0.25,1.81 2.24,3.23 3.75,4.01 1.9,0.98 4.39,1.41 5.87,3.05 0.59,0.65 0.28,1.49 -0.48,1.8 -2.38,0.98 -5.51,-0.24 -7.62,-1.38 -2.45,-1.32 -4.14,-3.21 -4.74,-5.94 -0.77,-3.53 0.67,-6.85 1.78,-10.14 1.16,-3.42 2.19,-7.11 4.48,-9.95 0.31,-0.39 0.9,-0.04 0.92,0.38z"/>
  <path class="fil3" d="M597.63 567.26c-0.06,1 -0.12,1.92 -0.35,2.92 -0.23,1 -0.55,2 -0.86,2.98 -0.59,1.84 -1.16,3.69 -1.68,5.55 -0.52,1.87 -0.98,3.74 -1.61,5.57 -0.32,0.92 -0.71,1.8 -1.02,2.72 -0.3,0.88 -0.46,1.9 -1.12,2.57 -0.34,0.34 -0.83,0.14 -0.99,-0.26 -0.34,-0.86 -0.06,-1.89 0.04,-2.79 0.11,-1.01 0.14,-2.02 0.28,-3.03 0.26,-1.92 0.81,-3.78 1.34,-5.64 0.53,-1.86 1.09,-3.71 1.71,-5.55 0.31,-0.92 0.65,-1.83 1.04,-2.72 0.46,-1.04 1.03,-1.86 1.7,-2.75 0.44,-0.59 1.6,-0.49 1.54,0.42z"/>
  <path class="fil3" d="M573.35 536.06c-0.61,0.72 -1.13,1.44 -1.84,2.08 -0.68,0.63 -1.36,1.26 -2.04,1.88 -1.41,1.28 -2.87,2.51 -4.3,3.78 -1.38,1.23 -2.76,2.49 -4.17,3.68 -1.48,1.24 -3.08,2.24 -4.76,3.17 -0.68,0.37 -1.59,-0.41 -1.11,-1.11 1.05,-1.56 2.18,-3.07 3.56,-4.36 1.39,-1.31 2.86,-2.55 4.31,-3.77 1.42,-1.2 2.84,-2.41 4.3,-3.55 0.79,-0.62 1.59,-1.21 2.39,-1.81 0.81,-0.61 1.63,-1 2.5,-1.49 0.99,-0.55 1.86,0.7 1.16,1.51z"/>
  <path class="fil4" d="M374.57 633.7l26.94 53.31 -67.49 28.51c0,0 -42.66,-24.33 -65.98,-68.56 0,0 52.82,-17.93 106.53,-13.25z"/>
  <path class="fil4" d="M641.58 208.84c0,0 3.65,-9.63 9.67,-11.97 9.06,-3.52 18.7,-3.28 24.45,-0.33 8,4.09 11.09,14.92 7.9,23.33 -3.18,8.41 -11.42,14.21 -20.18,16.22 -6.92,1.59 -14.63,0.86 -20.72,-2.58 0,0 -30.54,47.19 -77.02,43.52 -46.49,-3.67 -76.2,-39.52 -55.38,-99.72 19.11,-55.24 44.64,-66.51 69.08,-63.44 24.43,3.07 44.56,13.29 53.14,39.23 8.58,25.94 -9.8,51.82 -5.07,57.39 5.07,5.96 14.13,-1.65 14.13,-1.65z"/>
  <path class="fil9" d="M517.37 211.26c4.58,0 9.16,-0.94 13.4,-2.87 4.22,-1.93 8.14,-5.47 9.43,-10.05 1.4,-4.99 -0.68,-10.43 -4.5,-13.79 -3.9,-3.43 -8.86,-4.84 -13.89,-5.62 -2.68,-0.41 -5.38,-0.67 -8.09,-0.67 -0.08,0 -0.16,0 -0.24,0 -1.2,0.01 -2.37,0.04 -3.55,0.16 -0.5,1.49 -0.98,2.97 -1.42,4.43l-0.01 0.03 -0.01 0.04c-0.27,0.9 -0.53,1.79 -0.78,2.68l-0.01 0.03c-0.24,0.88 -0.48,1.74 -0.7,2.61l-0.04 0.15c-0.22,0.85 -0.42,1.7 -0.62,2.54l-0.02 0.09c-0.2,0.85 -0.38,1.7 -0.56,2.53l-0.03 0.11c-0.17,0.82 -0.33,1.64 -0.48,2.45l-0.02 0.14c-0.15,0.81 -0.29,1.61 -0.42,2.41l-0.02 0.15c-0.13,0.79 -0.25,1.58 -0.35,2.37l-0.02 0.12c-0.11,0.81 -0.21,1.61 -0.3,2.41l-0 0.03c-0.09,0.81 -0.17,1.61 -0.24,2.41l-0 0.03c-0.06,0.75 -0.12,1.48 -0.16,2.21 4.32,1.9 9,2.87 13.67,2.87z"/>
  <path class="fil10" d="M596.35 225.3c4.43,0 8.79,-1.07 12.51,-3.67 4.64,-3.25 7.44,-8.9 6.48,-14.58 -1.04,-6.1 -5.36,-10.65 -10.63,-13.51 -4.69,-2.55 -10.36,-3.79 -15.68,-3.95 -0.53,-0.02 -1.07,-0.03 -1.61,-0.03 -2.32,0 -4.69,0.22 -6.77,1.26 -2.3,1.15 -4.15,2.55 -5.72,4.61l-0.09 0.39c-1.15,0.5 -2.24,1.14 -3.19,2.02 -2.17,2.01 -3.51,4.77 -3.68,7.74 -0.35,5.8 2.71,11.01 7.62,14.01 4.92,3 10.96,4.64 16.63,5.43 1.37,0.19 2.75,0.3 4.13,0.3z"/>
  <path class="fil6" d="M658.04 221.61c0.16,-0.22 0.32,-0.45 0.48,-0.67 0.21,-0.3 0.51,-0.51 0.78,-0.75 0.48,-0.44 0.99,-0.84 1.47,-1.27 0.92,-0.82 1.77,-1.73 2.49,-2.73 0.75,-1.03 1.41,-2.11 2.01,-3.23 0.43,-0.8 0.86,-1.6 1.26,-2.41 -0.65,-0.59 -1.38,-1.11 -2.14,-1.52 -1.33,-0.73 -2.75,-1.44 -4.28,-1.59 -0.36,-0.03 -0.46,-0.54 -0.09,-0.65 1.75,-0.55 3.6,-0.75 5.38,-0.16 1.8,0.61 3.33,1.7 4.49,3.19 1.24,1.59 1.99,3.42 2.23,5.42 0.12,0.99 0.05,1.95 -0.19,2.93 -0.17,0.72 -0.68,2.08 -1.4,2.4 -0.34,0.16 -0.81,0.12 -1,-0.26 -0.2,-0.39 -0.16,-0.7 -0.15,-1.13 0.01,-0.39 -0.04,-0.77 -0.04,-1.17 -0.01,-0.72 -0.04,-1.47 -0.13,-2.18 -0.19,-1.47 -0.73,-2.93 -1.61,-4.13l-0.06 -0.07c-0.08,0.7 -0.22,1.4 -0.46,2.09 -0.46,1.34 -1.13,2.62 -1.96,3.77 -0.82,1.14 -1.74,2.2 -2.77,3.14 -0.53,0.48 -1.09,0.95 -1.72,1.29 -0.3,0.17 -0.64,0.4 -0.98,0.49 -0.33,0.09 -0.72,0.11 -1.06,0.16 -0.46,0.06 -0.83,-0.6 -0.55,-0.97z"/>
  <path class="fil11" d="M661.4 230.19c0.32,0.42 0.64,0.82 0.87,1.3 0.23,0.48 0.34,1.04 0.44,1.56 0.23,1.21 0.19,2.35 -0.06,3.55 -0.22,1.09 -0.61,2.14 -1.13,3.12 -0.62,1.17 -1.43,1.95 -2.66,2.36 -0.67,0.22 -1.27,-0.47 -1.1,-1.1 0.48,-1.88 1.62,-3.28 2.1,-5.15 0.22,-0.86 0.35,-1.77 0.46,-2.54 0.07,-0.52 0.04,-1.05 0.1,-1.57 0.06,-0.43 0.12,-0.88 0.12,-1.32 0.01,-0.48 0.59,-0.57 0.85,-0.23z"/>
  <path class="fil11" d="M653.97 232.16c1.36,2.94 1.39,6.46 -0.25,9.31 -0.47,0.82 -1.01,1.58 -1.94,1.9 -0.47,0.16 -0.99,0.09 -1.31,-0.31 -0.34,-0.41 -0.26,-0.97 -0.14,-1.45 0.1,-0.41 0.36,-0.74 0.56,-1.1 0.18,-0.32 0.34,-0.66 0.5,-0.99l0.12 -0.27c-0.03,0.06 -0.08,0.22 0.02,-0.06l0.17 -0.49c0.11,-0.35 0.21,-0.71 0.28,-1.08l0.06 -0.29c0.05,-0.25 0,0.03 0.02,-0.13 0.02,-0.19 0.05,-0.39 0.07,-0.59 0.04,-0.42 0.06,-0.84 0.05,-1.26 -0.02,-0.81 -0.13,-1.43 -0.4,-2.27 -0.41,-1.27 1.61,-2.16 2.19,-0.92z"/>
  <path class="fil2" d="M582.36 153.03c1.02,-0.36 2.01,-0.69 3.09,-0.75 1.1,-0.06 2.19,0.01 3.27,0.19 2.13,0.35 4.17,1.15 6.02,2.26 1.79,1.08 3.5,2.45 4.83,4.07 0.7,0.85 1.35,1.77 1.84,2.76 0.31,0.61 0.49,1.18 0.64,1.83 0.12,0.52 0.29,1.16 0.03,1.85 -0.38,0.98 -1.35,1.45 -2.33,0.95 -0.9,-0.47 -1.46,-1.5 -2.01,-2.33 -0.51,-0.79 -0.89,-1.35 -1.41,-1.99 -1.15,-1.39 -2.35,-2.46 -3.79,-3.36 -1.61,-1 -2.86,-1.54 -4.66,-2.03 -1.66,-0.45 -3.46,-0.83 -5.18,-0.93 -1.46,-0.08 -1.7,-2.02 -0.34,-2.5z"/>
  <path class="fil6" d="M555.43 150.25c0.98,7.45 0.91,14.77 -0.56,22.16 -0.71,3.56 -1.66,7.04 -2.86,10.47 -1.23,3.53 -2.58,7.12 -5.16,9.89 -0.62,0.67 -1.72,0.14 -1.57,-0.76 0.54,-3.46 2,-6.65 3.12,-9.95 1.15,-3.39 2.13,-6.86 2.9,-10.35 1.55,-6.98 2.66,-14.23 2.96,-21.38 0.03,-0.75 1.07,-0.84 1.17,-0.08z"/>
  <path class="fil2" d="M576.62 182.26c0,3.05 1.76,5.52 3.93,5.52 2.18,0 3.94,-2.47 3.94,-5.52 0,-3.05 -1.76,-5.52 -3.94,-5.52 -2.17,0 -3.93,2.47 -3.93,5.52z"/>
  <path class="fil2" d="M528.3 173.19c0,1.98 1.15,3.59 2.56,3.59 1.41,0 2.56,-1.61 2.56,-3.59 0,-1.98 -1.15,-3.59 -2.56,-3.59 -1.41,0 -2.56,1.61 -2.56,3.59z"/>
  <path class="fil12" d="M560.38 203.63c-3.92,6.5 -11.94,9.73 -19.33,8.68 -1.72,-0.25 -3.88,-0.71 -5.25,-1.86 -0.61,-0.51 -1.01,-1.5 -0.59,-2.26 0.56,-1.01 1.83,-0.89 2.75,-0.65 3.41,0.88 6.81,1.22 10.31,0.64 4.1,-0.68 7.92,-2.61 10.95,-5.45 0.6,-0.56 1.6,0.16 1.16,0.9z"/>
  <path class="fil2" d="M544.67 148.81c-1.3,0.73 -3.22,0.49 -4.66,0.54 -1.59,0.05 -3.18,0.26 -4.73,0.62 -1.5,0.35 -2.97,0.84 -4.36,1.51 -1.29,0.62 -3.22,2.02 -4.71,1.51 -0.46,-0.16 -0.8,-0.55 -0.8,-1.05 0,-1.78 2.24,-2.99 3.64,-3.65 1.68,-0.79 3.44,-1.42 5.26,-1.83 1.77,-0.4 3.58,-0.61 5.4,-0.59 1.58,0.02 4.04,0.14 5.15,1.44 0.39,0.46 0.38,1.18 -0.19,1.5z"/>
  <path class="fil13" d="M641.77 298.19c23.11,11.43 58.27,20.39 74.84,40.13 14.37,17.13 24,46.57 28.75,68.41 9.25,42.51 11.64,87.13 0,118.41 0,0 -62.63,11.13 -118.48,-0.67 -59.11,-12.49 -65.1,-19.47 -65.1,-19.47l4.7 -13.7c0,0 -18.86,-20.55 -24.7,-55.74l-32.75 -0.75c0,0 -2.32,-39.78 12,-66.38 14.32,-26.6 20.95,-31.08 33.71,-43.09 0,0 6.1,16.81 39.67,14.31 33.57,-2.5 47.36,-41.47 47.36,-41.47z"/>
  <path class="fil14" d="M632.52 488.22c0.74,-7 3.65,-13.32 7.44,-19.18 3.42,-5.3 7.22,-10.38 10.99,-15.43 7.66,-10.24 15.73,-20.19 24.67,-29.34 8.86,-9.06 18.6,-17.35 29.26,-24.22 5.61,-3.61 14.05,-9.66 20.01,-3.33 0.46,0.49 0.84,1.03 1.19,1.6 0.84,-0.22 1.78,0.02 2.24,0.95 0.67,1.35 1.45,2.73 1.88,4.17 0.42,1.41 0.77,2.86 1.11,4.29 0.7,2.89 1.16,5.82 1.57,8.76 0.84,6.08 1.36,12.19 1.39,18.34 0.07,12.04 -1.63,24.23 -5.3,35.71 -7.25,22.67 -23.44,45.43 -47.39,52.16 -11.52,3.24 -23.97,1.74 -33.85,-5.21 -9.34,-6.56 -16.47,-17.44 -15.22,-29.26z"/>
  <path class="fil14" d="M542.17 437.72c-0.02,-8.68 1.25,-31.48 13.23,-58.18 0,0 -26.35,25.39 -36.53,55.5l22.91 0.52c0.12,0.72 0.25,1.44 0.38,2.16z"/>
  <path class="fil4" d="M679.62 390.58c20.04,10.9 32.95,36.93 24.01,61.72 -7.58,20.99 -44.52,56.35 -71.8,59.69 -20.55,-31.57 -15.68,-44.45 -7.73,-72.08 2.65,-9.21 24.34,-37.39 30.88,-46.91 0,0 4.6,-13.31 24.64,-2.41z"/>
  <path class="fil5" d="M606.66 323.1c0,0 1.48,-18.27 -3.75,-22.24 -5.22,-3.97 -8.45,13.27 -8.45,13.27l12.2 8.97z"/>
  <path class="fil4" d="M630.95 439.9c0,0 -21.15,-39.31 -20.91,-74.03 0.24,-34.73 -0.18,-40.9 -0.18,-40.9 0,0 -31.22,-41.69 -42.75,-41.23 -11.53,0.46 10.09,26.52 10.09,26.52 0,0 -28.55,-26.63 -32.15,-20.52 -3.59,6.11 18.97,26.96 18.97,26.96 0,0 -19.74,-17.03 -23.66,-11.66 -3.91,5.36 13.98,18.66 13.98,18.66 0,0 -8.89,4.64 -8.47,13.92 0.41,9.28 12.06,19.69 12.06,19.69 -9.22,85.33 20.79,145.04 73.88,154.69l-0.88 -72.08z"/>
  <path class="fil13" d="M687.61 323.85c0,0 31.02,-0.26 46.08,44.58 17.34,51.64 -30.99,94.93 -30.99,94.93 -11.4,-31.77 -26.3,-58.98 -54.24,-69.26 0,0 7.22,-42.63 39.15,-70.26z"/>
  <path class="fil5" d="M609.2 324.9c0.6,8.38 0.34,16.8 0.9,25.2 0.56,8.48 1.59,16.93 3.06,25.3 2.9,16.55 7.33,32.86 13.47,48.5 1.73,4.41 3.6,8.76 5.46,13.11 0.95,2.23 1.9,4.46 2.88,6.68 0.95,2.15 1.53,4.42 2.44,6.58 0.32,0.78 -0.88,1.17 -1.3,0.55 -1.23,-1.79 -2.7,-3.42 -3.79,-5.3 -1.08,-1.87 -2.15,-3.75 -3.14,-5.66 -1.96,-3.78 -3.71,-7.66 -5.33,-11.59 -3.26,-7.92 -6.07,-16.04 -8.43,-24.28 -4.73,-16.47 -7.42,-33.55 -8.19,-50.66 -0.21,-4.73 -0.31,-9.48 -0.26,-14.22 0.03,-2.4 -0.01,-4.85 0.26,-7.24 0.27,-2.41 0.61,-4.73 1.07,-7.11 0.1,-0.54 0.87,-0.37 0.9,0.12z"/>
  <path class="fil5" d="M556.74 322.84c-0.74,1.32 -1.79,2.46 -2.66,3.71 -0.86,1.24 -1.55,2.58 -2.11,3.98 -1.16,2.9 -1.57,5.96 -1.34,9.07 0.26,3.4 1.43,6.73 3.04,9.7 0.89,1.64 1.87,3.22 2.93,4.75 1.01,1.46 2.28,2.88 2.45,4.7 0.1,0.97 -0.96,1.5 -1.76,1.35 -1.99,-0.39 -3.51,-2.48 -4.66,-4 -1.27,-1.68 -2.42,-3.43 -3.34,-5.32 -1.76,-3.61 -2.97,-7.56 -3.1,-11.59 -0.12,-3.6 0.68,-7.21 2.17,-10.47 1.32,-2.89 4.12,-6.55 7.46,-7.08 0.68,-0.11 1.29,0.53 0.92,1.2z"/>
  <path class="fil14" d="M726.15 379.67c1.64,12.07 -1.09,24.7 -5.75,35.82 -1.19,2.83 -2.51,5.6 -4,8.28 -1.36,2.44 -2.93,5.31 -5.27,6.95 -2.43,1.71 -4.82,0.21 -5.18,-2.52 -0.43,-3.26 -0.45,-6.62 -0.37,-9.9 0.18,-7.06 1.08,-15.05 4.45,-21.37 0.41,-0.77 1.8,-0.46 1.71,0.46 -0.55,5.59 -1.92,11.05 -2.33,16.66 -0.21,2.82 -0.3,5.66 -0.25,8.49 0.02,1.33 0.08,2.65 0.18,3.98 0.02,0.3 0.3,1.68 -0.09,1.47 -0.39,-0.21 -0.04,-0.21 0.22,-0.45 0.29,-0.26 0.55,-0.55 0.81,-0.83 1.69,-1.88 2.92,-4.21 4.11,-6.43 1.27,-2.36 2.44,-4.78 3.46,-7.26 2.04,-4.94 3.49,-10.03 4.66,-15.24 1.33,-5.92 1.87,-11.91 2.38,-17.94 0.06,-0.66 1.16,-0.94 1.26,-0.17z"/>
  <path class="fil14" d="M712.03 336.13c-2.11,-0.73 -4.66,-1.01 -6.89,-1.06 -2.33,-0.06 -4.67,0.19 -6.93,0.77 -4.43,1.13 -8.45,3.51 -11.93,6.44 -7.22,6.11 -12.59,14.4 -17.1,22.62 -2.66,4.84 -5.02,9.82 -7.59,14.7 -0.41,0.77 -1.4,0.19 -1.3,-0.55 1.42,-10.36 6.72,-20.27 12.87,-28.58 5.93,-8 13.35,-15.66 23.36,-18.08 2.73,-0.66 5.58,-0.97 8.38,-0.64 1.37,0.16 2.72,0.4 4.03,0.83 1.38,0.45 2.52,1.23 3.75,1.98 0.81,0.49 0.29,1.91 -0.67,1.58z"/>
  <polygon class="fil2" points="517.1,597.09 650.17,620.79 540.07,643.85 336.97,585.31 "/>
  <path class="fil15" d="M540.07 643.85c0.13,-14.7 -57.98,-172.1 -81.47,-236.38 0,0 -131.58,-24.87 -193.62,-19.38 0,0 52.51,128.46 71.98,197.22l203.11 58.54z"/>
  <path class="fil2" d="M377.41 432.25c1.97,3.1 3.99,6.33 4.52,9.97 0.53,3.64 -0.86,7.83 -4.18,9.42 -3.31,1.59 -7.36,0.11 -10.15,-2.28 -4.05,-3.48 -6.37,-8.88 -6.1,-14.21 0.1,-2.07 0.63,-4.21 2.04,-5.72 2.63,-2.8 7.46,-2.3 10.51,0.03 3.05,2.34 4.75,5.98 6.34,9.48l-2.99 -6.69z"/>
  <path class="fil2" d="M460.51 407.19c4.31,10.55 8.36,21.2 12.4,31.88 5.68,15 11.25,30.04 16.83,45.08 6.11,16.48 12.14,32.98 18.08,49.52 5.54,15.41 10.98,30.86 16.13,46.41 3.8,11.47 7.49,22.98 10.22,34.75 0.23,1 0.29,2.18 0.5,3.08 0.39,1.63 -2.12,2.32 -2.51,0.69 -0.23,-0.98 -0.75,-2.08 -1.05,-3.12 -0.31,-1.1 -0.62,-2.21 -0.97,-3.3 -0.81,-2.55 -1.61,-5.09 -2.42,-7.64 -1.95,-6.15 -3.94,-12.28 -5.98,-18.39 -5.06,-15.19 -10.4,-30.3 -15.79,-45.38 -5.91,-16.55 -11.95,-33.05 -18.03,-49.54 -5.67,-15.38 -11.33,-30.77 -16.99,-46.15 -4.17,-11.34 -8.42,-22.69 -11.9,-34.26 -0.3,-0.99 -0.59,-1.98 -0.88,-2.97 -0.46,-1.55 1.78,-2.06 2.35,-0.65z"/>
  <path class="fil16" d="M440.17 414.13c-16.59,-2.68 -33.2,-5.46 -49.86,-7.79 -16.48,-2.31 -33.05,-4.05 -49.64,-5.29 -9.49,-0.7 -18.95,-1.67 -28.42,-2.68 -0.64,-0.07 -0.67,-1 0,-1.02 8.46,-0.3 16.97,-0.39 25.42,0.2 8.46,0.59 16.92,1.3 25.36,2.21 16.64,1.8 33.23,4.15 49.69,7.18 9.33,1.72 18.53,3.87 27.69,6.32 0.57,0.15 0.32,0.95 -0.24,0.86z"/>
  <path class="fil4" d="M180.58 662.4l9.64 67.98 68.2 -18.93 22.31 72.58c-15.78,4.08 -71.54,5.67 -101.46,5.04 0,0 -29.24,13.51 -45.61,-14.55 -8.02,-13.75 1.28,-49.97 1.28,-49.97 0,0 -22.77,-49 -4.35,-77.94l49.99 15.79z"/>
  <path class="fil6" d="M224.38 720.9c0.29,22.96 -2.75,45.95 -8.98,68.05 26.55,-0.59 54.81,-2.2 65.33,-4.92l-22.31 -72.58 -34.04 9.45z"/>
  <path class="fil8" d="M664.31 589.75l-9.75 20.27c0,0 -103.55,9.99 -214.58,65.32 0,0 -105.05,11.94 -174.99,31.59l15.41 86.05c0,0 111.76,22.98 174.29,-22 0,0 255.75,38.91 286.34,-64.04 30.59,-102.96 -76.72,-117.18 -76.72,-117.18z"/>
  <path class="fil17" d="M267.37 700.89c0,0 40.81,46.84 26.05,97.95l-44.48 0c-3.28,-34.57 -10.53,-62.97 -22.86,-83.45l41.28 -14.5z"/>
  <path class="fil17" d="M668.02 609.77c-4.2,0.77 -8.36,1.67 -12.57,2.36 -4.18,0.68 -8.37,1.3 -12.56,1.91 -7.9,1.14 -15.77,2.41 -23.64,3.72 -14.92,2.5 -29.75,5.48 -44.47,9 -14.12,3.38 -28.1,7.32 -41.9,11.83 -14.19,4.64 -28.18,9.87 -41.97,15.59 -7.34,3.04 -14.63,6.18 -21.89,9.42 -7.64,3.41 -15.37,6.6 -23.01,10.01 -1.94,0.87 -3.86,1.7 -5.86,2.41 -0.78,0.27 -1.17,-0.86 -0.54,-1.27 3.64,-2.39 7.61,-4.31 11.46,-6.35 3.67,-1.95 7.32,-3.89 11.06,-5.71 7.23,-3.53 14.62,-6.75 22.01,-9.92 13.91,-5.97 28.07,-11.39 42.41,-16.24 13.82,-4.67 27.83,-8.78 41.98,-12.31 14.57,-3.64 29.3,-6.61 44.1,-9.14 7.85,-1.34 15.74,-2.51 23.63,-3.57 8.28,-1.12 16.65,-2.34 25.01,-2.55 2.19,-0.06 4.39,-0.16 6.58,-0.26 0.61,-0.03 0.77,0.97 0.15,1.08z"/>
  <path class="fil3" d="M265.01 715.41c5.45,7.13 9.7,15.24 12.33,23.83 1.3,4.23 2.24,8.57 2.73,12.97 0.24,2.19 0.3,4.39 0.25,6.6 -0.05,2.23 0,4.71 -0.77,6.83 -0.26,0.71 -1.33,0.81 -1.54,0 -0.55,-2.05 -0.47,-4.26 -0.68,-6.36 -0.22,-2.2 -0.54,-4.4 -0.87,-6.58 -0.64,-4.21 -1.5,-8.38 -2.74,-12.46 -2.53,-8.33 -6.38,-16.15 -11.54,-23.17 -1.26,-1.72 1.57,-3.31 2.84,-1.66z"/>
  <path class="fil3" d="M259.39 719.17c7.18,15.17 9.96,32.09 7.73,48.74 -0.3,2.26 -0.66,4.54 -1.3,6.72 -0.58,1.97 -1.08,4.76 -2.53,6.29 -0.34,0.37 -1.06,0.21 -1.16,-0.3 -0.23,-1.12 0.06,-2.26 0.21,-3.38 0.19,-1.33 0.37,-2.66 0.55,-3.99 0.32,-2.44 0.74,-4.85 0.99,-7.3 0.52,-5.13 0.63,-10.34 0.32,-15.49 -0.61,-10.28 -2.93,-20.53 -7,-30.01 -0.63,-1.48 1.49,-2.79 2.2,-1.29z"/>
  <path class="fil3" d="M712.31 614.1c-2.12,-1.02 -4.33,-1.65 -6.54,-2.42 -2.17,-0.76 -4.35,-1.47 -6.55,-2.09 -4.37,-1.23 -8.74,-2.35 -13.23,-3.09 -8.89,-1.46 -17.88,-1.69 -26.84,-0.64 -2.53,0.3 -5.01,0.78 -7.51,1.23 -1.26,0.22 -2.55,0.27 -3.82,0.5 -1.26,0.23 -2.52,0.57 -3.8,0.62 -0.98,0.03 -1.26,-1.3 -0.48,-1.79 1.94,-1.21 4.38,-1.7 6.5,-2.52 2.09,-0.81 4.53,-1.05 6.74,-1.37 4.65,-0.69 9.33,-1.03 14.03,-0.97 9.32,0.11 19.08,1.44 27.83,4.8 2.39,0.92 4.78,1.92 7.07,3.07 2.42,1.22 4.61,2.76 6.95,4.11 0.37,0.21 0.04,0.75 -0.33,0.57z"/>
  <path class="fil3 str0" d="M739.59 661.28c-0.73,3.73 -1.7,7.31 -3.35,10.75 -1.64,3.43 -3.59,6.69 -5.78,9.8 -4.33,6.13 -9.43,11.73 -14.94,16.81 -11.34,10.48 -24.12,19.35 -37.76,26.57 -28.96,15.32 -61.21,23.23 -93.75,25.85 -9.86,0.79 -19.74,1.06 -29.62,0.92 -5.05,-0.07 -10.07,-0.46 -15.1,-0.88 -4.9,-0.41 -9.86,-0.83 -14.7,-1.73 -0.7,-0.13 -0.51,-1.2 0.17,-1.21 4.39,-0.12 8.79,0.07 13.18,0.12 4.31,0.04 8.63,0.01 12.94,-0.05 8.73,-0.1 17.43,-0.16 26.14,-0.67 17.05,-1 34.02,-3.37 50.59,-7.55 29.26,-7.37 57.45,-20.47 80.57,-40.03 6.35,-5.37 12.43,-11.16 17.61,-17.68 2.55,-3.22 4.87,-6.65 6.88,-10.23 0.96,-1.72 1.75,-3.52 2.69,-5.24 1.05,-1.93 1.97,-3.88 2.75,-5.93 0.35,-0.91 1.66,-0.57 1.47,0.4z"/>
  <path class="fil3" d="M441.23 754c-1.8,1.35 -3.5,2.73 -5.44,3.89 -1.82,1.1 -3.73,2.07 -5.63,3.01 -3.86,1.91 -7.82,3.59 -11.84,5.12 -8.02,3.04 -16.29,5.44 -24.69,7.24 -17.13,3.66 -34.71,5.32 -52.2,5.98 -9.96,0.38 -19.9,0.53 -29.83,-0.4 -0.9,-0.08 -0.88,-1.28 0,-1.39 8.63,-1.07 17.29,-1.37 25.97,-1.75 8.68,-0.38 17.37,-0.86 26.02,-1.68 17.02,-1.62 34.04,-4.56 50.28,-9.99 4.49,-1.5 8.9,-3.22 13.24,-5.09 2.25,-0.97 4.48,-1.99 6.68,-3.05 2.24,-1.08 4.57,-1.91 6.82,-2.94 0.72,-0.33 1.23,0.58 0.61,1.04z"/>
  <path class="fil7" d="M128.36 652.15c-2.48,-7.64 -3.27,-16.39 0.65,-23.4 2.12,-3.79 6.82,-7.02 10.62,-4.92 1.64,0.91 2.68,2.61 3.51,4.29 1.83,3.71 3.05,7.72 3.59,11.82 1.25,-2.4 3.26,-4.38 5.67,-5.6 1.29,-0.65 2.75,-1.08 4.17,-0.81 2.12,0.41 3.68,2.34 4.28,4.4 0.6,2.07 0.43,4.27 0.26,6.42 2.73,-2.5 6.51,-4.47 10.03,-3.33 3.52,1.14 5.11,6.73 1.91,8.57 3.39,-2.18 8.16,-1.95 11.31,0.56 3.15,2.51 4.46,7.1 3.1,10.89 -1.65,4.59 -6.4,7.24 -10.95,8.98l-48.13 -17.86z"/>
  <path class="fil6" d="M171.75 669.47c-1.63,-1.18 -3.02,-2.69 -4.57,-3.99 -1.46,-1.22 -2.92,-2.42 -4.47,-3.49 -3.26,-2.26 -6.72,-4.13 -10.36,-5.52 -3.57,-1.35 -7.27,-2.26 -11.04,-2.66 -1.89,-0.2 -3.79,-0.22 -5.68,-0.38 -1.91,-0.16 -3.93,-0.04 -5.81,-0.37 -0.67,-0.12 -0.92,-1.15 -0.24,-1.52 1.76,-0.95 4,-1.3 5.92,-1.58 1.94,-0.28 4,-0.17 5.93,0.03 4.13,0.41 8.21,1.4 12.11,2.94 3.81,1.5 7.51,3.5 10.85,6.03 3.21,2.43 6.77,5.41 8.68,9.26 0.45,0.91 -0.63,1.77 -1.33,1.26z"/>
  <path class="fil6" d="M181.03 667c2.9,6.25 4.08,13.27 5.32,20.02 1.27,6.93 2.26,13.9 3.05,20.9 0.81,7.15 1.4,14.32 1.73,21.5 0.16,3.44 0.29,6.89 0.31,10.33 0.02,3.86 -0.48,7.43 -0.97,11.23 -0.11,0.89 -1.3,0.91 -1.4,0 -0.38,-3.62 -0.9,-7.12 -1.02,-10.78 -0.11,-3.44 -0.21,-6.89 -0.38,-10.33 -0.35,-7.03 -0.88,-14.05 -1.62,-21.05 -0.74,-7 -1.71,-13.98 -2.82,-20.93 -1.09,-6.84 -2.78,-13.75 -2.92,-20.69 -0.01,-0.37 0.55,-0.55 0.72,-0.19z"/>
  <path class="fil2" d="M557.27 377.42c0.41,4.8 -0.23,9.56 -0.32,14.37 -0.09,4.98 0.09,9.97 0.58,14.93 0.95,9.71 3.13,19.38 6.15,28.65 5.37,16.46 13.84,31.88 24.2,45.72 2.13,2.85 4.32,5.66 6.51,8.47 1.65,2.11 3.37,4.15 5.33,6 0.55,0.52 -0.16,1.45 -0.81,1.05 -4.7,-2.91 -8.86,-6.74 -12.45,-10.92 -5.29,-6.15 -9.76,-13.02 -13.77,-20.05 -9.67,-16.96 -15.98,-35.51 -18.1,-54.94 -0.63,-5.79 -0.99,-11.61 -0.83,-17.43 0.14,-5.42 0.43,-11.1 2.89,-16.02 0.16,-0.33 0.61,-0.14 0.63,0.17z"/>
  <path class="fil2" d="M497.22 632.58c-4.51,-0.83 -8.94,-1.86 -13.34,-3.18 -4.46,-1.33 -8.91,-2.75 -13.36,-4.12 -9.01,-2.77 -18.01,-5.58 -27.04,-8.29 -18.27,-5.48 -36.57,-10.84 -54.91,-16.07 -5.08,-1.45 -10.14,-2.93 -15.18,-4.52 -4.96,-1.56 -9.73,-3.54 -14.6,-5.37 -1.23,-0.46 -0.76,-2.22 0.55,-1.97 4.51,0.86 9.06,1.5 13.52,2.62 4.53,1.14 9.03,2.35 13.54,3.59 9.18,2.51 18.31,5.22 27.45,7.89 18.38,5.36 36.76,10.83 54.9,16.97 4.92,1.66 9.85,3.3 14.72,5.12 4.88,1.82 9.6,3.88 14.19,6.34 0.58,0.31 0.16,1.12 -0.42,1.01z"/>
  <path class="fil17" d="M383.5 643.85c0,0 -78.77,-19.22 -111.39,15.38 0,0 -13.26,-5.74 -22.94,-34.98 0,0 0.9,-12.2 52.8,-23.96 27.34,-6.2 62.54,8.94 62.54,8.94l19 34.61z"/>
  <path class="fil17" d="M365.91 602.44c-14.17,-20.38 -38.16,-33.59 -62.96,-34.68l62.96 34.68z"/>
  <path class="fil3" d="M365.53 602.66c-2.86,-3.96 -6.26,-7.38 -9.9,-10.64 -3.57,-3.19 -7.31,-6.2 -11.32,-8.81 -7.98,-5.22 -16.75,-9.15 -26,-11.5 -5.13,-1.3 -10.51,-1.68 -15.59,-3.13 -0.76,-0.22 -0.86,-1.49 0,-1.65 4.77,-0.89 9.9,0.04 14.58,1.1 4.86,1.1 9.58,2.66 14.16,4.64 9.02,3.89 17.68,9.45 24.56,16.52 3.87,3.98 7.16,8.44 10.27,13.03 0.32,0.47 -0.43,0.88 -0.75,0.44z"/>
  <path class="fil3" d="M353.97 597.54c-1.53,-0.55 -2.92,-1.43 -4.36,-2.17 -1.46,-0.75 -2.97,-1.45 -4.47,-2.12 -3.1,-1.37 -6.37,-2.45 -9.65,-3.28 -3.21,-0.82 -6.46,-1.31 -9.76,-1.56 -3.44,-0.26 -6.89,-0.08 -10.33,-0.27 -1.3,-0.07 -1.61,-1.91 -0.31,-2.3 6.66,-1.98 14.45,-0.81 21.04,0.93 3.39,0.9 6.66,2.15 9.8,3.72 2.96,1.48 6.53,3.38 8.64,6.01 0.34,0.43 0.04,1.26 -0.6,1.03z"/>
  <path class="fil2" d="M526.93 173.19c0,3.05 1.76,5.52 3.93,5.52 2.18,0 3.94,-2.47 3.94,-5.52 0,-3.05 -1.76,-5.52 -3.94,-5.52 -2.17,0 -3.93,2.47 -3.93,5.52z"/>
 </g>
</svg>
