<?xml version="1.0" encoding="UTF-8"?>
<!DOCTYPE svg PUBLIC "-//W3C//DTD SVG 1.1//EN" "http://www.w3.org/Graphics/SVG/1.1/DTD/svg11.dtd">
<!-- Creator: CorelDRAW 2021 (64-Bit) -->
<svg xmlns="http://www.w3.org/2000/svg" xml:space="preserve" width="4.8007mm" height="4.6905mm" version="1.1" style="shape-rendering:geometricPrecision; text-rendering:geometricPrecision; image-rendering:optimizeQuality; fill-rule:evenodd; clip-rule:evenodd"
viewBox="0 0 1687.66 1648.92"
 xmlns:xlink="http://www.w3.org/1999/xlink"
 xmlns:xodm="http://www.corel.com/coreldraw/odm/2003">
 <defs>
  <style type="text/css">
   <![CDATA[
    .fil0 {fill:#3D8361;fill-rule:nonzero}
   ]]>
  </style>
 </defs>
 <g id="Layer_x0020_1">
  <metadata id="CorelCorpID_0Corel-Layer"/>
  <path class="fil0" d="M913.77 1648.92c-182.56,0 -342.79,-35.72 -480.7,-107.15 -137.91,-71.43 -244.53,-169.16 -319.94,-293.15 -75.41,-124.03 -113.13,-265.42 -113.13,-424.14 0,-160.73 37.23,-303.1 111.62,-427.13 74.42,-124.03 176.12,-221.26 305.11,-291.71 128.98,-70.41 274.8,-105.64 437.53,-105.64 156.75,0 298.15,33.22 424.14,99.7 125.99,66.48 225.69,161.71 299.13,285.74 73.4,124.03 110.14,272.34 110.14,444.99 0,17.86 -1.02,38.18 -2.99,61.03 -2,22.82 -3.97,44.12 -5.94,63.98l-1300.72 0 0 -270.87 1056.64 0 -178.58 80.36c0,-83.32 -16.87,-155.77 -50.62,-217.25 -33.71,-61.52 -80.36,-109.65 -139.88,-144.38 -59.52,-34.73 -128.98,-52.06 -208.36,-52.06 -79.34,0 -149.3,17.33 -209.84,52.06 -60.5,34.73 -107.64,83.35 -141.36,145.86 -33.75,62.5 -50.62,136.4 -50.62,221.75l0 71.43c0,87.29 19.37,164.17 58.04,230.65 38.71,66.48 93.26,117.1 163.71,151.8 70.45,34.73 153.27,52.1 248.54,52.1 85.32,0 160.23,-12.9 224.71,-38.71 64.51,-25.77 123.53,-64.47 177.11,-116.08l247.03 267.88c-73.4,83.35 -165.68,147.33 -276.81,191.98 -111.12,44.65 -239.09,66.97 -383.96,66.97z"/>
 </g>
</svg>
